<svg id="Layer_1" data-name="Layer 1" xmlns="http://www.w3.org/2000/svg" viewBox="0 0 500 500"><defs><style>.cls-1{fill:#fff;}</style></defs><circle cx="250" cy="250" r="243"/><rect class="cls-1" x="75" y="204.394" width="90.702" height="91.212"/><path class="cls-1" d="M252.981,311.317A61.317,61.317,0,1,1,314.3,250H405A152.02,152.02,0,1,0,252.981,402.019h0v-90.7Z"/><path class="cls-1" d="M380.691,392.356a39.82,39.82,0,0,1-26.423,9.663,54.465,54.465,0,0,1-19.93-3.7,47.587,47.587,0,0,1-16.608-10.8,52.344,52.344,0,0,1-11.324-17.364,60.983,60.983,0,0,1-4.228-23.4,52.32,52.32,0,0,1,15.854-37.973,54.937,54.937,0,0,1,17.439-11.324,56.144,56.144,0,0,1,21.666-4.152,59.715,59.715,0,0,1,13.891,1.585,49.55,49.55,0,0,1,12.305,4.681,48.557,48.557,0,0,1,10.192,7.4,37.531,37.531,0,0,1,7.4,9.739l-21.893,16.76a24.683,24.683,0,0,0-9.512-10.192,25.479,25.479,0,0,0-13.438-3.85,21.929,21.929,0,0,0-9.663,2.114,22.586,22.586,0,0,0-7.549,5.888,28.223,28.223,0,0,0-4.983,8.984,37,37,0,0,0,0,22.875,26.648,26.648,0,0,0,5.058,8.832,22.479,22.479,0,0,0,7.776,5.738,24.376,24.376,0,0,0,10.116,2.038q12.833,0,22.648-10.569H360.912V344.192H405v57.073H380.691Z"/></svg>