<svg width="210" height="210" viewBox="0 0 210 210" fill="none" xmlns="http://www.w3.org/2000/svg">
<path d="M128.543 84.7534C127.248 79.8094 124.187 76.6312 119.126 75.2186C114.888 74.0415 110.533 73.5706 106.177 73.3352C101.233 73.4529 96.1716 73.8061 91.3453 75.2186C86.2837 76.6312 83.2231 79.8094 81.9283 84.7534C81.222 87.4608 80.9866 90.2859 80.8689 92.9933C80.6334 95.583 80.6334 95.9361 82.3991 95.9361H126.895C129.955 95.9361 129.955 95.9361 129.602 92.8756C129.484 90.2859 129.131 87.4608 128.543 84.7534Z" fill="#496DDB"/>
<path d="M127.719 114.064H83.3408C80.2803 114.064 80.2803 114.064 80.6334 117.125C80.7511 119.832 80.9866 122.657 81.6928 125.364C82.9877 130.308 86.0482 133.487 91.1099 134.899C95.3476 136.076 99.7029 136.547 104.058 136.783C109.002 136.665 114.064 136.312 118.89 134.899C123.952 133.487 127.012 130.308 128.307 125.364C129.013 122.657 129.249 119.832 129.367 117.125C129.602 114.535 129.602 114.182 127.719 114.064Z" fill="#496DDB"/>
<path d="M105 0C47.0852 0 0 47.0852 0 105C0 162.915 47.0852 210 105 210C163.033 210 210 162.915 210 105C210 47.0852 163.033 0 105 0ZM149.26 81.3397C149.731 84.4002 150.084 87.4608 150.437 90.639V96.0538H166.682C167.976 96.0538 169.154 96.0538 170.331 96.2892C173.156 96.7601 174.922 98.4081 175.039 101.115V109.002C174.922 111.71 173.156 113.358 170.331 113.828C169.154 114.064 167.976 114.064 166.682 114.064H150.202V119.361C149.849 122.539 149.496 125.6 149.025 128.66C148.554 131.721 147.73 134.428 146.67 136.783H167.506C169.978 136.783 172.332 137.018 173.98 139.372C176.452 143.257 175.157 148.436 171.272 150.908C170.802 151.261 170.213 151.614 169.624 151.732C165.269 153.145 160.796 153.38 156.205 153.615C137.489 153.969 118.302 154.086 105.353 154.086C90.0505 154.086 69.5684 153.851 54.0303 153.498C49.4395 153.38 44.9664 153.145 40.7287 151.614C40.0224 151.497 39.5516 151.261 39.0807 150.79C35.1962 148.318 33.9013 143.257 36.3733 139.254C37.9036 136.9 40.2578 136.665 42.7298 136.665H63.3296C62.3879 134.311 61.5639 131.603 61.0931 128.66C60.6222 125.6 60.2691 122.539 59.9159 119.361V113.946H43.4361C42.1413 113.946 40.9641 113.946 39.787 113.711C36.9619 113.24 35.1962 111.592 35.0785 108.885V100.998C35.1962 98.2904 36.9619 96.6424 39.787 96.1715C40.9641 95.9361 42.1413 95.9361 43.4361 95.9361H59.9159V90.639C60.2691 87.4608 60.6222 84.4002 61.0931 81.3397C61.5639 78.2792 62.3879 75.5718 63.4473 73.2175H42.6121C40.1401 73.2175 37.7859 72.9821 36.1379 70.6278C33.6659 66.7433 34.9608 61.5639 38.8453 59.0919C39.3161 58.7388 39.9047 58.3857 40.4933 58.2679C44.8487 56.8554 49.3218 56.62 53.7948 56.3845C72.5112 56.0314 91.6984 55.9137 104.647 55.9137C119.95 55.9137 140.549 56.1491 155.97 56.5022C160.561 56.62 165.034 56.8554 169.271 58.3857C169.978 58.5034 170.448 58.7388 170.919 59.2096C174.804 61.6816 176.099 66.7433 173.627 70.7455C172.096 73.0998 169.742 73.3352 167.27 73.3352H146.67C147.965 75.6895 148.672 78.2792 149.26 81.3397Z" fill="#496DDB"/>
</svg>
